<svg xmlns="http://www.w3.org/2000/svg" width="500" height="177" viewBox="0 0 500 177">
  <metadata><?xpacket begin="﻿" id="W5M0MpCehiHzreSzNTczkc9d"?>
<x:xmpmeta xmlns:x="adobe:ns:meta/" x:xmptk="Adobe XMP Core 5.6-c138 79.159824, 2016/09/14-01:09:01        ">
   <rdf:RDF xmlns:rdf="http://www.w3.org/1999/02/22-rdf-syntax-ns#">
      <rdf:Description rdf:about=""/>
   </rdf:RDF>
</x:xmpmeta>
                                                                                                    
                                                                                                    
                                                                                                    
                                                                                                    
                                                                                                    
                                                                                                    
                                                                                                    
                                                                                                    
                                                                                                    
                                                                                                    
                                                                                                    
                                                                                                    
                                                                                                    
                                                                                                    
                                                                                                    
                                                                                                    
                                                                                                    
                                                                                                    
                                                                                                    
                                                                                                    
                           
<?xpacket end="w"?></metadata>
<defs>
    <style>
      .cls-1 {
        fill: #000;
        fill-rule: evenodd;
      }
    </style>
  </defs>
  <path class="cls-1" d="M493.812,49.941c0-8.132-5.708-17.785-17.739-17.785-6.924,0-14.16,3.97-13.1,13.307,0.684,6.051,10.257,8.217,15.531,9.848C493.858,60.064,500,65.831,500,77.1c0,10.994-9.479,19.144-26.34,19.144-8.275,0-17.459-1.629-23.028-6.653L448.649,73.3h1.594c2.434,14.527,8.809,20.217,24.021,20.6,9.743,0.246,12.618-5.232,12.559-12.018-0.052-6.752-7.4-9.674-16.129-12.524-12.489-3.941-20.212-8.684-20.212-20.5,0-12.088,10.577-19.484,26.23-19.484a40.943,40.943,0,0,1,18.472,5.09V49.941h-1.372Zm-54.63-14.39a58.7,58.7,0,0,0,7.775-6.134q4.692-4.641,4.691-8.73a3.07,3.07,0,0,0-.559-1.88,2.144,2.144,0,0,0-1.733-.718,21.835,21.835,0,0,1-2.458.278,8.168,8.168,0,0,1-6.091-2.462,8.646,8.646,0,0,1-2.4-6.324,9.5,9.5,0,0,1,2.569-6.907A9.251,9.251,0,0,1,447.957.019a10.852,10.852,0,0,1,8.194,3.507,13.117,13.117,0,0,1,3.323,8.343c0.146,4.751-1.816,10.827-7.177,16.378a51.6,51.6,0,0,1-12.128,8.9ZM296.809,126.3v21.117c0.066,6.388,2.885,8.381,5.684,8.381a15.071,15.071,0,0,0,5.323-1.21l0.434,1.31c-2.959,1.611-6.118,3.141-10.389,3.141-3.052,0-10.58-1.071-10.58-8.338V126.3h-6.017v-2.371h6.972l6.573-10.12h2v10.12h10.566V126.3H296.809Zm-21.18,7.657a9.376,9.376,0,0,0-9.587-9.608c-3.732,0-7.642,2.146-7.073,7.19,0.372,3.267,5.549,4.437,8.4,5.321,8.285,2.562,11.608,5.677,11.608,11.767,0,5.939-5.128,10.34-14.226,10.34-4.479,0-9.434-.876-12.444-3.594l-1.07-8.8H252.1c1.316,7.847,4.753,10.924,12.972,11.123,5.261,0.137,6.816-2.823,6.785-6.492-0.031-3.64-4-5.222-8.715-6.762-6.743-2.125-10.917-4.693-10.917-11.069,0-6.532,5.712-10.525,14.174-10.525a22.055,22.055,0,0,1,9.975,2.75v8.359h-0.743ZM424.813,30.5c-5.135,0-11.385,2.8-18.16,11.079V30.529l-22.326,3.256V35.6s4.927-.553,6.92-0.72V87.233c-0.017,2.159-.351,4.964-4.056,4.964h-3.618v2.42h31.9l-0.031-2.42h-3.9c-2.8,0-4.889-1.215-4.889-4.964V50.547c0.844-8.094,5.966-12.731,8.313-12.741,4.5-.017,4.333,3.158,8.333,5.02,5.358,2.027,9.729-1.566,9.729-5.643,0-3.853-2.642-6.687-8.215-6.687M125.78,32.765c17.527-.111,16.819,23.008,16.819,23.078a2.733,2.733,0,0,1-3.128,2.92v0.005H113.314V58.764a2.91,2.91,0,0,1-3.076-3.127c0-.044-0.011-0.08-0.014-0.124,0.312-7.61,2.371-22.664,15.556-22.748M113.207,61.751H156a35.378,35.378,0,0,0-.587-11.258,24.893,24.893,0,0,0-5.014-10.97,0.876,0.876,0,0,0-.076-0.1c-4.243-5.119-11.531-9.181-23.938-9.181-22.469,0-34.177,14.382-34.177,33.7,0,20.139,10.337,32.74,34.333,32.74,15.948,0,24.3-7.4,28.556-17.806l-1.7-.853c-5.636,11-12.545,15.294-23.6,15.271-16.211-.046-19.6-15.114-19.76-28a1.993,1.993,0,0,0,.038-0.37,2.965,2.965,0,0,1,3.143-3.18m116.6,62.205c9.709-.06,9.362,12.3,9.362,12.341a1.515,1.515,0,0,1-1.737,1.616v0H222.95v0a1.61,1.61,0,0,1-1.7-1.73,0.518,0.518,0,0,0-.011-0.073c0.171-4.21,1.268-12.108,8.573-12.154m-6.965,16.055h23.7a19.68,19.68,0,0,0-.323-6.235,13.8,13.8,0,0,0-2.778-6.076,0.505,0.505,0,0,1-.042-0.051c-2.351-2.837-6.392-5.087-13.26-5.087-12.448,0-18.938,7.968-18.938,18.665,0,11.16,5.729,18.142,19.021,18.142,8.833,0,13.462-4.1,15.816-9.869l-1.194-.465c-3.122,6.093-6.952,8.473-13.077,8.456-8.982-.022-10.6-8.371-10.691-15.511a1.178,1.178,0,0,0,.021-0.207,1.644,1.644,0,0,1,1.743-1.762M348.291,32.765c17.528-.111,16.819,23.008,16.819,23.078a2.733,2.733,0,0,1-3.128,2.92v0.005H335.829V58.764a2.912,2.912,0,0,1-3.08-3.127c0-.044-0.014-0.08-0.014-0.124,0.316-7.61,2.375-22.664,15.556-22.748m-12.57,28.986H378.51a35.455,35.455,0,0,0-.591-11.258,24.839,24.839,0,0,0-5.01-10.97l-0.076-.1c-4.243-5.119-11.535-9.181-23.938-9.181-22.472,0-34.177,14.382-34.177,33.7,0,20.139,10.337,32.74,34.33,32.74,15.944,0,24.3-7.4,28.555-17.806l-1.7-.853c-5.635,11-12.542,15.294-23.6,15.271-16.212-.046-19.6-15.114-19.764-28a1.7,1.7,0,0,0,.039-0.37,2.965,2.965,0,0,1,3.145-3.18M36.247,46.114H29.688a3.422,3.422,0,0,1-3.736-3.787c0-.065-0.014-0.108-0.017-0.167V8.43a46.079,46.079,0,0,1,8.2-.486c10.233,0,21.972,3.217,21.972,20.6,0,12.9-6.92,17.571-19.865,17.571M52.236,48.3C64.323,46.443,72.9,39.746,72.82,27.322,72.747,15.5,66.2,5.457,42.115,5.457H0v2.19H4.59c1.149,0,4.472.377,4.472,4.841V87.275c0.028,5.433-4.594,5.293-4.594,5.293H0v2.047H35.465V92.568H31.174s-5.233.667-5.222-5.293c0-.06-0.017-34.052-0.017-34.052,0-.056.017-0.1,0.017-0.164,0-2.236.9-3.87,3.736-3.87h4.75c7.563,0,21.017,4.961,24.924,25.9,5.285,28.315,30,34.469,54.316,33.436V107.24C64.865,103.853,89.952,51.733,52.236,48.3m109.54,71.2c3.091,0,5.129-1.851,5.129-4.418,0.076-2.637-2.038-4.636-5.045-4.636h-0.084c-3.09,0-5.114,2-5.114,4.636,0,2.567,2.024,4.418,5.114,4.418m6.4,37.22a1.835,1.835,0,0,1-1.739-1.955V124.142l-13.584,2.28L154.2,127.9s2.215-.251,2.357-0.234v26.895a0.883,0.883,0,0,0-.01.139,1.847,1.847,0,0,1-1.75,2.022h-2.379v1.649h18.924v-1.649h-3.16ZM206.5,79.362c0,8.683-9.257,11.96-13.843,11.467-8.23-.88-11.24-7.074-11.24-14.408,0-5.974,1.9-9.513,8.618-12.053,5.5-2.081,13.306-4.464,16.465-6.228V79.362Zm24.271,10.644a8.148,8.148,0,0,1-4.92,2.2,3.343,3.343,0,0,1-3.642-2.879c-0.209-3.34-.288-40.809-0.288-40.809,0-7.6-4.882-18.124-26.56-18.124-16.4,0-27.493,7.62-28,14.933-0.281,4.125,2.41,7.347,6.437,7.154a5.633,5.633,0,0,0,.657-0.073c0.09-.007.18-0.017,0.27-0.029,0.285-.051.573-0.114,0.872-0.2,0.2-.053.4-0.127,0.594-0.186,3.948-1.568,4.715-6.441,4.715-6.441l0,0c1.451-8.821,4.67-13.423,14.187-13.13,11.115,0.336,11.4,6.25,11.4,16.294v1.363c-0.041,1.194-.725,5.494-8.194,8.468-5.757,1.7-13.156,2.243-20.25,3.48-10.33,1.8-13.243,10.047-13.243,16.158,0,9.64,7.378,17.684,20.767,18.058,10.587,0.3,16.622-5.421,20.92-8.2,1.959,4.887,3.834,6.741,9.334,8.2,3.215,0.846,10.139.043,15.969-4.751Zm55.43-14.24c0,2.579,0,4.613-1.052,6.782-2.712,6.242-8.58,8.052-15.5,8.052-12.781,0-16.284-13.565-16.284-28.352,0-16.42,3.795-27.82,17.482-27.82,6.615,0,11.8,3.286,14.2,8.44,1.059,2.037,1.146,4.794,1.146,8.186V75.766Zm20.819,16.161c-4.135.106-5.468-2.028-5.468-5.431V0.578L275.964,3.294V5.631L286.2,5.015V39.067a19.587,19.587,0,0,0-15.344-8.911c-11.271-.521-20.3,3.531-26.174,8.957-6.315,5.565-10.072,14.111-10.072,25.235,0,18.6,9.923,31.619,29.177,31.619a33.776,33.776,0,0,0,22.413-8.66v7.033h22.941V91.927h-2.122ZM134.777,147.856a8.2,8.2,0,0,1-.593,3.838c-1.538,3.54-4.858,4.56-8.778,4.56-7.236,0-9.219-7.678-9.219-16.052,0-9.293,2.149-15.75,9.9-15.75a8.521,8.521,0,0,1,8.046,4.78,10.462,10.462,0,0,1,.645,4.631v13.993Zm11.789,9.152c-2.344.056-3.1-1.155-3.1-3.077V105.287l-14.482,1.537v1.324l5.791-.35v19.281a11.1,11.1,0,0,0-8.687-5.048,20.24,20.24,0,0,0-14.82,5.07c-3.576,3.154-5.7,7.992-5.7,14.292,0,10.53,5.618,17.9,16.517,17.9a19.126,19.126,0,0,0,12.691-4.9v3.981h12.987v-1.366h-1.2Zm44.2-12.4c-4.288.029-6.691-3.427-6.934-9.481-0.233-6.191,3.2-9.335,6.628-9.335h0.08c3.115,0,6.622,2.1,6.507,9.335-0.1,5.84-1.878,9.443-6.281,9.481m0.458,14.01c7.164,0,11.056,1.6,10.82,6.815-0.316,6.69-5.153,8.783-9.875,8.783H192.1c-6.482,0-10.42-3.4-10.545-9.157a5.491,5.491,0,0,1,2.278-4.771c1.455-1.143,3.125-1.67,7.392-1.67m11.365-35.975c2.483-.01,2.389,1.744,4.6,2.776,2.959,1.117,5.372-.867,5.372-3.117,0-2.127-1.459-3.693-4.535-3.693-2.8,0-6.2,1.513-9.9,5.967a1.091,1.091,0,0,0-.132-0.059,22.585,22.585,0,0,0-7.229-1.288c-11.271,0-15.934,4.45-15.865,11.785,0.094,9.363,9,10.779,9,10.779-4.233.544-7.615,3.008-7.615,5.882,0,4.14,5.518,6.056,8.723,6.282V158.1c-3.073.271-9.855,0.46-10.31,7.633-0.458,7.025,7.205,11.088,15.74,11.148,13.983,0.087,19.455-6.073,19.455-14.055,0-7.654-6.712-10.42-14.326-10.42h-6.559c-5.028,0-6.556-1.674-6.556-2.887,0-2.047,2.247-2.883,3.236-3.186,1.368,0.15,3.934.23,4.695,0.23,6.854,0,15.208-2.763,15.208-11.557a11.206,11.206,0,0,0-1.118-4.73c-0.115-.23-0.226-0.457-0.358-0.677-0.01-.014-0.01-0.021-0.021-0.035a0.08,0.08,0,0,0-.02-0.029,13.023,13.023,0,0,0-.851-1.169,0.172,0.172,0,0,0-.024-0.031c-0.139-.173-0.285-0.316-0.428-0.476-0.263-.268-0.767-0.761-1.333-1.271-0.76-.566-1.427-1-1.986-1.332,1.035-1.691,2.354-2.615,3.132-2.621"/>
</svg>
